<svg width="34" height="42" viewBox="0 0 34 42" fill="none" xmlns="http://www.w3.org/2000/svg">
<path fill-rule="evenodd" clip-rule="evenodd" d="M17 4.2C15.8728 4.2 14.7918 4.6425 13.9948 5.43015C13.1978 6.2178 12.75 7.28609 12.75 8.4H21.25C21.25 7.28609 20.8022 6.2178 20.0052 5.43015C19.2082 4.6425 18.1272 4.2 17 4.2ZM11.3773 2.1C12.8754 0.7938 14.8452 0 17 0C19.1548 0 21.1225 0.7938 22.6227 2.1H29.75C30.8772 2.1 31.9582 2.5425 32.7552 3.33015C33.5522 4.1178 34 5.18609 34 6.3V37.8C34 38.9139 33.5522 39.9822 32.7552 40.7698C31.9582 41.5575 30.8772 42 29.75 42H4.25C3.12283 42 2.04183 41.5575 1.2448 40.7698C0.447766 39.9822 0 38.9139 0 37.8V6.3C0 5.18609 0.447766 4.1178 1.2448 3.33015C2.04183 2.5425 3.12283 2.1 4.25 2.1H11.3773ZM8.76775 6.3H4.25V37.8H29.75V6.3H25.2322C25.4065 6.972 25.5 7.6755 25.5 8.4V10.5C25.5 11.057 25.2761 11.5911 24.8776 11.9849C24.4791 12.3787 23.9386 12.6 23.375 12.6H10.625C10.0614 12.6 9.52091 12.3787 9.1224 11.9849C8.72388 11.5911 8.5 11.057 8.5 10.5V8.4C8.5 7.6755 8.5935 6.972 8.76775 6.3ZM8.5 18.9C8.5 18.343 8.72388 17.8089 9.1224 17.4151C9.52091 17.0212 10.0614 16.8 10.625 16.8H23.375C23.9386 16.8 24.4791 17.0212 24.8776 17.4151C25.2761 17.8089 25.5 18.343 25.5 18.9C25.5 19.457 25.2761 19.9911 24.8776 20.3849C24.4791 20.7787 23.9386 21 23.375 21H10.625C10.0614 21 9.52091 20.7787 9.1224 20.3849C8.72388 19.9911 8.5 19.457 8.5 18.9ZM8.5 27.3C8.5 26.743 8.72388 26.2089 9.1224 25.8151C9.52091 25.4212 10.0614 25.2 10.625 25.2H17C17.5636 25.2 18.1041 25.4212 18.5026 25.8151C18.9011 26.2089 19.125 26.743 19.125 27.3C19.125 27.857 18.9011 28.3911 18.5026 28.7849C18.1041 29.1787 17.5636 29.4 17 29.4H10.625C10.0614 29.4 9.52091 29.1787 9.1224 28.7849C8.72388 28.3911 8.5 27.857 8.5 27.3Z" fill="#473C3C"/>
</svg>
